<?xml version="1.0" encoding="UTF-8"?>
<svg width="32px" height="24px" viewBox="0 0 32 24" version="1.1" xmlns="http://www.w3.org/2000/svg" xmlns:xlink="http://www.w3.org/1999/xlink">
    <defs></defs>
    <g id="帖子正文" stroke="none" stroke-width="1" fill="none" fill-rule="evenodd">
        <g id="圈内推圈" transform="translate(-252.000000, -1572.000000)" fill="#777777">
            <g id="list_3行字2图-copy" transform="translate(0.000000, 896.000000)">
                <path d="M280,676 C282.209,676 284,677.653231 284,679.692308 L284,696.307692 C284,698.346769 282.209,700 280,700 L256,700 C253.791,700 252,698.346769 252,696.307692 L252,679.692308 C252,677.653231 253.791,676 256,676 L280,676 Z M256,698 L280,698 C281.104,698 282,697.185455 282,696.181818 L282,679.818182 C282,678.813636 281.104,678 280,678 L256,678 C254.895,678 254,678.813636 254,679.818182 L254,696.181818 C254,697.185455 254.895,698 256,698 Z M268,690 C266.895431,690 266,689.104569 266,688 C266,686.895431 266.895431,686 268,686 C269.104569,686 270,686.895431 270,688 C270,689.104569 269.104569,690 268,690 Z M260,690 C258.895431,690 258,689.104569 258,688 C258,686.895431 258.895431,686 260,686 C261.104569,686 262,686.895431 262,688 C262,689.104569 261.104569,690 260,690 Z M276,690 C274.895431,690 274,689.104569 274,688 C274,686.895431 274.895431,686 276,686 C277.104569,686 278,686.895431 278,688 C278,689.104569 277.104569,690 276,690 Z" id="Combined-Shape"></path>
            </g>
        </g>
    </g>
</svg>